<svg width="122" height="32" viewBox="0 0 122 32" fill="none" xmlns="http://www.w3.org/2000/svg">
<g clip-path="url(#clip0_874_115255)">
<path d="M4.26575 4.44173C4.45349 4.41778 4.61926 4.55946 4.61926 4.74902V10.1984C4.61926 16.003 4.91285 25.8203 14.9989 25.8203C21.2122 25.8203 25.3884 20.8478 25.3884 15.0193C25.3884 9.19075 20.3654 4.86076 14.1121 4.86076C13.3451 4.86076 12.724 5.48132 12.724 6.24755V10.0248C12.724 10.0248 14.2239 10.0208 14.5395 10.0208C18.7976 10.0208 20.2416 13.2174 20.2416 15.0193C20.2416 18.3975 18.0107 20.6143 15.2305 20.6143C11.7573 20.6143 9.75213 17.8407 9.75213 14.9774V2.89331C9.75413 1.29501 11.0503 0 12.6481 0C30.4614 0 34.8633 6.79429 34.8633 11.3358C34.8633 22.8771 21.5158 32 12.8359 32C2.27052 32 0.0476074 22.1208 0.0476074 14.9514C0.0476074 6.82023 2.47224 4.68117 4.26575 4.44173Z" fill="#22B94F"/>
<path d="M47.6815 9.92338C45.878 9.92338 44.7935 11.0468 44.7935 11.0468V6.99416C44.7935 6.61104 44.4839 6.30176 44.1005 6.30176H41.4222V22.5442H44.7955V21.349C45.3088 22.3985 46.4172 22.8595 47.8832 22.8595C50.192 22.8595 53.5174 21.3569 53.5174 16.4283C53.5174 11.4997 50.1521 9.92538 47.6815 9.92538V9.92338ZM47.4238 19.609C45.4845 19.609 44.7975 17.855 44.7975 16.3904C44.7975 14.9258 45.3747 13.122 47.4238 13.122C49.473 13.122 50.0462 14.9737 50.0462 16.3904C50.0462 17.8072 49.3632 19.609 47.4238 19.609Z" fill="#2E3538"/>
<path d="M61.2107 9.86914C57.7056 9.86914 54.6279 12.5849 54.6279 16.3661C54.6279 20.1474 57.7395 22.8711 61.2107 22.8711C64.4462 22.8711 67.3981 19.9239 67.3981 16.3901C67.3981 12.8562 65.0834 9.87114 61.2107 9.87114V9.86914ZM61.2826 19.6465C59.7807 19.6465 58.4326 18.5551 58.4326 16.3821C58.4326 14.2091 59.7647 13.1216 61.2826 13.1216C62.9583 13.1216 63.9609 14.6461 63.9609 16.3921C63.9609 18.4114 62.6827 19.6445 61.2826 19.6445V19.6465Z" fill="#2E3538"/>
<path d="M75.1933 9.87695C72.7806 9.87695 72.2594 11.3675 72.2594 11.3675L72.2514 10.711C72.2474 10.4397 72.0257 10.2202 71.7541 10.2202H68.9V22.5237H72.3273V15.3104C72.3273 13.9436 73.1821 13.1474 74.2746 13.1474C75.1434 13.1474 76.1939 13.4746 76.1939 15.3204V22.5237H79.6251V15.025C79.6251 11.4354 77.6059 9.87895 75.1933 9.87895V9.87695Z" fill="#2E3538"/>
<path d="M88.8264 17.4272C88.8264 18.794 87.9716 19.5902 86.8791 19.5902C86.0103 19.5902 84.9597 19.2629 84.9597 17.4172V10.2139H81.5285V17.7125C81.5285 21.3022 83.5477 22.8586 85.9604 22.8586C88.373 22.8586 88.8943 21.3681 88.8943 21.3681L88.9023 22.0246C88.9063 22.2959 89.128 22.5154 89.3996 22.5154H92.2536V10.2139H88.8264V17.4272Z" fill="#2E3538"/>
<path d="M118.525 10.2139V17.4272C118.525 18.794 117.67 19.5902 116.578 19.5902C115.709 19.5902 114.658 19.2629 114.658 17.4172V10.2139H111.227V17.7125C111.227 21.3022 113.246 22.8586 115.659 22.8586C118.072 22.8586 118.593 21.3681 118.593 21.3681L118.607 22.5154C118.607 24.8101 118.176 26.0971 116.075 26.0971C115.116 26.0971 114.666 25.6582 114.523 25.2272C114.455 25.0256 114.265 24.8939 114.053 24.8939H110.798C110.798 26.578 112.456 29.3197 116.077 29.3197C119.981 29.3197 121.954 26.4204 121.954 22.5154V10.2139H118.527H118.525Z" fill="#2E3538"/>
<path d="M99.9509 15.2387C97.8898 14.7399 97.4005 14.4386 97.4005 13.7362C97.4005 13.2234 97.7799 12.7964 98.7087 12.7964C100.237 12.7964 100.237 13.832 100.237 13.832C100.237 13.832 101.8 13.8639 103.364 13.8639C103.364 11.7249 101.517 9.86914 98.6368 9.86914C95.7568 9.86914 94.135 12.1638 94.135 13.9178C94.135 15.6717 94.9579 16.7432 97.4764 17.4117C99.5595 17.9644 100.113 18.2238 100.113 18.994C100.113 19.2375 99.897 19.9399 98.7786 19.9399C97.762 19.9399 97.3565 19.4849 96.9531 18.6448H93.7975C93.7236 20.4287 95.2475 22.895 98.8005 22.895C102.354 22.895 103.412 20.313 103.412 18.8125C103.412 17.721 102.911 15.9571 99.9489 15.2407L99.9509 15.2387Z" fill="#2E3538"/>
<path d="M108.649 18.1539V6.18555H105.142V17.8865C105.142 22.0628 106.712 22.5317 109.35 22.5317H109.548C109.821 22.5317 110.045 22.3103 110.045 22.0349V19.1416H109.641C109.094 19.1416 108.651 18.6986 108.651 18.1519L108.649 18.1539Z" fill="#2E3538"/>
</g>
<defs>
<clipPath id="clip0_874_115255">
<rect width="121.905" height="32" fill="white" transform="translate(0.0476074)"/>
</clipPath>
</defs>
</svg>
